<?xml version="1.0" encoding="utf-8"?>
<!-- Generator: Adobe Illustrator 18.0.0, SVG Export Plug-In . SVG Version: 6.00 Build 0)  -->
<!DOCTYPE svg PUBLIC "-//W3C//DTD SVG 1.1//EN" "http://www.w3.org/Graphics/SVG/1.1/DTD/svg11.dtd">
<svg version="1.1" id="Layer_1" xmlns="http://www.w3.org/2000/svg" xmlns:xlink="http://www.w3.org/1999/xlink" x="0px" y="0px"
	 viewBox="0 0 300 300" enable-background="new 0 0 300 300" xml:space="preserve">
<g>
	<g>
		<g>
			<path fill="#808080" d="M19.8,270.6l-4.8-7.1c-3.2-4.7-2.9-9.5,0.8-14.4c6.5-12,12.9-24,21.1-35.4c1-1.3,1.1-3.8,1.2-6.7
				c0.1-2.3,0.2-4.6,0.6-6.7c3.7-19.1,9-33.8,16.8-46.3c1.6-2.6,3.5-5,5.6-7.7l12.1-16.1c4.5-11,11.8-20.5,22-28.6l9-7.2
				c0.8-1.1,1.6-2.2,2.6-3.3c11.3-12.3,24.7-22.2,40.8-30.3l8-4l0.1,0.5c3.1-3.9,6.9-7.1,11.4-9.7c8.1-4.6,16-8,24.1-10.4
				c20.6-5.9,43.7-8.1,71.5-7.4l24.4,0.7l-20.6,13.1c-13.9,8.8-28.2,19-38.2,33.1c-3.4,4.7-7.2,9.2-12.8,11.9l-9.4,13.9
				c-6.9,10.3-13.4,20.1-22.1,28.7l-9.3,9.9c-3.6,3.8-6.9,8-10.1,12.1c-8.1,10.3-17,21.7-30.8,26.5l-7.7,7.1
				c-7.7,7.2-16.1,12.7-24,17.7l-1.8,1.1c-9.1,5.8-18.6,11.7-29.7,13.8c-10.4,2-16.9,8.1-21.1,19.7c-3.8,10.3-11.1,16.1-17.6,21.2
				c-2,1.5-3.9,3.1-5.8,4.8L19.8,270.6z M66.7,164c-6.1,10.5-10.3,22.7-13.4,39c-0.3,1.5-0.3,3.1-0.4,4.6c0,0.9-0.1,1.9-0.2,2.8
				c4.4-2.9,9.4-4.9,15.1-6c8.4-1.6,16.6-6.8,24.5-11.8l1.8-1.1c4.4-2.8,9-5.7,13.4-9.1c-1.6-1.3-3.1-3-4.6-5.2l-9.8-14.9l17.5,3.5
				c20.6,4.2,30.3-7.1,42.2-22.3c0.3-0.3,0.5-0.7,0.8-1c-2.1-0.3-4.2-0.9-6.4-1.8l-16.6-6.7l16.5-7c3.6-1.6,7.1-2.2,10.1-2.8
				c3.1-0.6,5-0.8,6.8-1c3.8-0.4,7.1-0.8,8.8-2.5c6.8-6.6,12.4-14.4,18-22.8h-27.7l20-13.6c6.5-4.4,13-8.4,20.8-8.6
				c5.1-0.1,7.8-1.9,12.2-8.2c6.5-9.1,14.2-16.6,22.5-23.1c-16.2,0.7-30.2,2.9-43.3,6.7c-7,2-13.8,5-20.8,9
				c-7.6,4.4-11.8,11.2-14.1,22.9l-4.3,21.7L146.5,85c-1-2-1.6-4-1.9-5.8c-10.2,6.2-19.1,13.3-26.8,21.7c-2.2,2.4-3.6,5.2-4.6,9.5
				c-0.5,1.9-0.6,3.9-0.8,5.9c-0.4,4.3-0.8,9.1-3.1,14.1L103,144l-7-13.1c-1.2-2.3-2-4.6-2.5-6.8c-8,10.6-11.5,23.2-11.1,39.4
				l0.7,25.7l-14.3-21.3C68,166.5,67.3,165.3,66.7,164z"/>
		</g>
	</g>
</g>
</svg>
