<?xml version="1.0" encoding="utf-8"?>
<!-- Generator: Adobe Illustrator 18.0.0, SVG Export Plug-In . SVG Version: 6.00 Build 0)  -->
<!DOCTYPE svg PUBLIC "-//W3C//DTD SVG 1.1//EN" "http://www.w3.org/Graphics/SVG/1.1/DTD/svg11.dtd">
<svg version="1.1" id="Layer_1" xmlns="http://www.w3.org/2000/svg" xmlns:xlink="http://www.w3.org/1999/xlink" x="0px" y="0px"
	 viewBox="0 0 300 300" enable-background="new 0 0 300 300" xml:space="preserve">
<g>
	<g>
		<path fill="#808080" d="M137.9,182.3c-11.2,11.1-23.4,19.4-37.6,24.6c-17.1,6.3-33.9,7-50.4-1.7c-20-10.6-27.7-32-18.6-51.2
			c2.9-6.1,6.1-6.8,11.5-2.4c6.7,5.5,13.9,10,22.9,10.7c13.8,1.1,23.2-6.3,31.5-15.9c9.4-10.9,17-23.1,24.3-35.5
			c11.2-19.2,26.1-34.2,48.6-39.9c15.8-4,31.7-3.1,47.4,0.5c16,3.7,28.7,12.5,38,26.2c7.1,10.5,11.3,22.1,14,34.3
			c3.4,15.1,4.1,30.2,0.9,45.4c-6.1,29.1-24,46.7-53.3,52.2c-11.8,2.2-23.7,3.2-35.6,0.8c-21.7-4.2-34.4-18.3-40.9-38.6
			C139.6,188.9,138.9,186,137.9,182.3z M261.9,157.8c0.3-7.3-0.9-14.4-2.3-21.4c-3.1-15.4-8.6-29.8-20.3-40.8
			c-17.4-16.3-38.8-18.6-61-15.1c-23.1,3.7-38.2,18.6-49.4,38.1c-8.8,15.3-18.2,30-31.1,42.2c-8.1,7.6-17.5,12.7-29.1,12.8
			c-9.9,0-18.4-3.9-26.3-9.3c-2.5-1.7-3.2-1-3.7,1.5c-1.4,7.6,0.4,14.3,5.1,20.3c7.9,10.1,18.8,15.4,31.2,14.8
			c27.8-1.3,49.3-14.5,64.2-38c4.1-6.5,7.9-13.3,13.2-18.9c14.7-15.8,32.2-23.5,53.9-17.6c17.3,4.7,25,22.1,18.5,40.5
			c-5.6,15.8-22.9,17.6-36.3,12.4c-5.3-2.1-7.9-7.3-6.7-12.8c0.6-2.9,2.2-4.6,5.5-4.5c3.3,0.1,4.9,1.6,5.1,4.8
			c0.1,1.8,0.2,3.2,2.5,3.9c12.9,4,23.7-5.5,21.1-18.8c-2.3-11.7-13.3-18.7-26.5-16.7c-20.9,3.2-32.7,17.5-41.9,34.9
			c-0.3,0.6-0.5,1.4-0.4,2c2,12.6,5.1,24.7,13.8,34.6c10.1,11.5,23.3,14.9,38,14.3c17.6-0.7,34.2-4.6,47-17.7
			C258.2,190.7,261.4,174.6,261.9,157.8z"/>
	</g>
</g>
</svg>
