<?xml version="1.0" encoding="utf-8"?>
<!-- Generator: Adobe Illustrator 18.0.0, SVG Export Plug-In . SVG Version: 6.00 Build 0)  -->
<!DOCTYPE svg PUBLIC "-//W3C//DTD SVG 1.1//EN" "http://www.w3.org/Graphics/SVG/1.1/DTD/svg11.dtd">
<svg version="1.1" id="Layer_1" xmlns="http://www.w3.org/2000/svg" xmlns:xlink="http://www.w3.org/1999/xlink" x="0px" y="0px"
	 viewBox="0 0 300 300" enable-background="new 0 0 300 300" xml:space="preserve">
<path fill="#808080" d="M147.7,290.6c-2.1-1.3-3.7-3.1-5.1-5.2c-22.5-33.5-43.5-67.9-62-103.8c-8.5-16.5-16-33.5-21.7-51.3
	C44.5,86,68,40,105.7,20.4c9.6-5,19.7-8.4,30.4-9.9c1.2-0.2,2.7,0.1,3.6-1c6.5,0,13,0,19.4,0c4.1,1.4,8.5,1.4,12.6,2.5
	c37.9,10.3,61.8,34.5,71.4,72.6c4.8,19.1,1.4,37.5-5.3,55.6c-8.8,23.6-20.4,45.7-32.6,67.6c-15,26.8-31.5,52.7-48.3,78.3
	c-1.3,2-2.9,3.7-5.2,4.5C150.4,290.6,149.1,290.6,147.7,290.6z M150,270.5c16.3-24.9,31.8-49.6,45.8-75.2
	c11.3-20.7,22.2-41.5,29.8-63.9c4-11.6,6.5-23.3,5-35.8c-4.5-37.2-33.4-66.5-70.5-71.3C125.3,19.9,91,38.9,76.3,70.8
	c-7.4,16.2-9.7,32.9-5.1,50.3c3.2,12,7.7,23.4,12.8,34.7c15.1,32.9,33.5,63.8,52.7,94.4C141,256.9,145.4,263.4,150,270.5z
	 M202.9,104.4c-0.1,27.7-22.1,51.7-51.2,52.7c-29.7,1-55-22.8-54.6-54.1c0.3-26.6,21.4-50.5,51-51.7
	C178.2,50.1,202.1,73.6,202.9,104.4z M149.6,142.8c21.1,0.4,38.4-16.5,39-38c0.6-21-16.8-38.9-38.1-39.3
	c-21.2-0.4-38.7,16.8-39.1,38.2C111.1,125,128.1,142.4,149.6,142.8z"/>
</svg>
