<?xml version="1.0" encoding="utf-8"?>
<!-- Generator: Adobe Illustrator 18.0.0, SVG Export Plug-In . SVG Version: 6.00 Build 0)  -->
<!DOCTYPE svg PUBLIC "-//W3C//DTD SVG 1.1//EN" "http://www.w3.org/Graphics/SVG/1.1/DTD/svg11.dtd">
<svg version="1.1" id="Layer_1" xmlns="http://www.w3.org/2000/svg" xmlns:xlink="http://www.w3.org/1999/xlink" x="0px" y="0px"
	 viewBox="0 0 300 300" enable-background="new 0 0 300 300" xml:space="preserve">
<g>
	<g>
		<path fill="#808080" d="M150.3,52.4c33.1,0,66.3,0,99.4,0c17.8,0,28.9,10.8,29,28.8c0.1,24.4,0,48.8,0,73.2c0,21.2,0,42.4,0,63.6
			c0,7.6-2,14.6-6.7,20.7c-5.3,6.7-12.3,9.4-20.8,9.4c-49.8-0.1-99.6,0-149.4,0c-17,0-34,0-51,0c-18.6,0-29.6-11-29.7-29.8
			c-0.1-32,0-63.9,0-95.9c0-13.6,0-27.3,0-40.9c0-8,2.4-15.2,7.8-21.3c5.3-6,12-8.1,19.8-8.1c33.8,0.1,67.6,0.1,101.5,0.1
			C150.3,52.2,150.3,52.3,150.3,52.4z M43.5,84.5c-0.6,0.5-1.2,1-1.8,1.5c-0.1,0.3-0.3,0.6-0.3,0.9c0,43.9-0.1,87.9,0,131.8
			c0,7.2,2.3,9.1,9.5,9.1c44.8,0,89.5,0,134.3,0c21.5,0,43.1,0,64.6,0c6,0,8.1-2,8.6-8c0.1-1.2,0.1-2.4,0.1-3.5
			c0-41.1,0-82.1,0-123.2c0-1.4-0.2-2.8-0.3-4.8c-1.4,1.2-2.3,1.9-3.2,2.7C225.6,118,196,145,166.5,172.1
			c-10.8,9.9-24.4,9.8-34.8-0.2c-24.8-24-49.7-47.9-74.4-72C52.4,95.2,48.1,89.7,43.5,84.5z M58.8,72.5c-0.4,0.4-0.7,0.8-1.1,1.2
			c1.5,1.1,3.1,2,4.4,3.3c27.4,26.3,54.8,52.7,82.1,79.1c4.4,4.2,5.2,4.2,9.9,0c28.8-26.3,57.6-52.6,86.4-78.9
			c1.3-1.2,2.8-2.1,4.2-3.1c-0.4-0.5-0.7-1-1.1-1.4C182.1,72.5,120.5,72.5,58.8,72.5z"/>
	</g>
</g>
</svg>
