<?xml version="1.0" encoding="utf-8"?>
<!-- Generator: Adobe Illustrator 18.0.0, SVG Export Plug-In . SVG Version: 6.00 Build 0)  -->
<!DOCTYPE svg PUBLIC "-//W3C//DTD SVG 1.1//EN" "http://www.w3.org/Graphics/SVG/1.1/DTD/svg11.dtd">
<svg version="1.1" id="Layer_1" xmlns="http://www.w3.org/2000/svg" xmlns:xlink="http://www.w3.org/1999/xlink" x="0px" y="0px"
	 viewBox="0 0 300 300" enable-background="new 0 0 300 300" xml:space="preserve">
<path fill="#CCCCCC" d="M21.2,244.4c3.1-7.2,4-15.2,7.8-22.2c13.4-24.5,33.8-38.1,61.8-39.7c7.3-0.4,10.4,1.9,10.7,7.2
	c0.3,5.4-2.8,8.1-10.3,8.7c-25.2,2-42.1,15-51,38.5c-1.8,4.8-2.7,9.9-2.9,15.1c-0.3,7.8,2.6,10.8,10.3,10.9c13.2,0,26.3,0,39.5,0
	c54.8,0,109.6,0,164.4,0c9.2,0,11.8-2.8,11.3-12.1c-1.5-26.9-24.3-50.2-51.1-52.1c-1.9-0.1-3.8-0.2-5.7-0.5
	c-4.8-0.7-7.7-3.4-7.3-8.5c0.4-5,3.5-7.1,8.5-7.2c28.6-0.5,56.7,19,67,46.7c2.7,7.2,4.1,14.7,4.6,22.3c1,15.9-9.3,27.2-25.3,27.4
	c-16.2,0.2-32.5,0-48.7,0c-50.8,0-101.6-0.3-152.3,0.2c-15.2,0.1-26.3-4.5-31.3-19.6C21.2,254.4,21.2,249.4,21.2,244.4z M141.5,21
	c-0.4,0.3-0.7,0.9-1.1,1c-15.6,2.4-28.1,10.2-38.5,21.7c-30.5,33.6-32.3,90.6-4.2,126.8c28.6,36.8,76.7,37.1,104.8,0
	c22.6-29.9,25.6-63.3,13.2-98c-7.5-21.1-21.2-37.4-42.1-46.5c-5.1-2.2-10.6-3.3-15.9-4.9C152.2,21,146.8,21,141.5,21z M111.4,56.9
	c21.6-26.3,55.7-26.4,77.2,0c14.3,17.6,19.3,38.2,17.5,60.4c-1.2,15.3-6,29.4-15,41.9c-22,30.5-60.1,30.5-82.1,0
	c-10.1-14-15.8-32.6-15.5-50.5C94.2,89.7,99.1,72,111.4,56.9z"/>
</svg>
