<?xml version="1.0" encoding="utf-8"?>
<!-- Generator: Adobe Illustrator 18.0.0, SVG Export Plug-In . SVG Version: 6.00 Build 0)  -->
<!DOCTYPE svg PUBLIC "-//W3C//DTD SVG 1.1//EN" "http://www.w3.org/Graphics/SVG/1.1/DTD/svg11.dtd">
<svg version="1.1" id="Layer_1" xmlns="http://www.w3.org/2000/svg" xmlns:xlink="http://www.w3.org/1999/xlink" x="0px" y="0px"
	 viewBox="0 0 300 300" enable-background="new 0 0 300 300" xml:space="preserve">
<g>
	<g>
		<path fill="#808080" d="M70.8,14.2c8.7,2.5,15.3,8.1,21.5,14.5c10.4,10.8,21,21.5,31.9,31.9c11.3,10.7,14.4,29.6,0.1,42.1
			c-6.8,5.9-12.7,12.8-19.3,19c-2.1,2-2,3.3-0.4,5.6c19.2,26.6,42.2,49.5,68.8,68.8c2.3,1.7,3.6,1.8,5.6-0.4
			c6.6-6.9,13.5-13.6,20.2-20.3c11.1-11.1,26.6-12,38-1.3c14.4,13.6,28.2,27.9,42.1,42c3.8,3.8,5.1,9,7.1,13.8c0,3.5,0,7.1,0,10.6
			c-2.7,7.7-8.1,13.4-14,18.7c-7.4,6.7-13.3,15-22.4,19.9c-6.7,3.6-13.9,5-21,7.1c-7.4,0-14.9,0-22.3,0c-1.2-2-3.4-1.5-5.1-1.8
			c-8.7-1.7-17.1-4.2-25.4-7.4c-40.1-15.9-73-42-101.8-73.6c-24-26.3-43.4-55.6-54.5-89.9c-2.3-7.1-2.7-14.7-5.6-21.7
			c0-7.4,0-14.9,0-22.3c2.4-3.3,2.2-7.5,3.6-11.2c5-13.5,26.8-36.4,42.1-44C63.7,14.2,67.2,14.2,70.8,14.2z M31.3,81.2
			c0.2,15.7,4.6,30.4,11.2,44.4c21.7,46.6,55.1,83.2,97,112.3c21.9,15.3,45.4,27.5,72.4,30.8c15.2,1.9,29.2-0.4,40.1-12.9
			c4.3-4.9,9.2-9.3,13.8-13.9c4.7-4.8,5.3-9.6,0.7-14.4c-13.3-13.7-26.8-27.3-40.5-40.6c-4.6-4.5-9.9-4-14.5,0.5
			c-7.3,7.2-14.5,14.5-21.8,21.8c-7.8,7.7-15.4,8.4-24.2,2.2c-29.8-21.1-55.1-46.5-76.2-76.3c-5.9-8.4-5.2-16.2,1.9-23.4
			c7.3-7.4,14.8-14.8,22.1-22.2c4.6-4.7,5.3-9.9,0.7-14.5c-13.5-13.8-27.1-27.5-41-40.9c-4.6-4.4-9.5-3.8-14,0.7
			c-4.8,4.7-9.3,9.8-14.3,14.2C34.9,57.6,31.1,68.5,31.3,81.2z"/>
	</g>
</g>
</svg>
